<svg style="left: 0px; top: 0px; width: 100%; height: 100%; display: block; min-width: 701px; min-height: 681px;" content="&lt;mxfile&gt;&lt;diagram id=&quot;d&quot; name=&quot;P&quot;&gt;7Zxbb+MoFMc/TaTuQyPfmz7m4nQqdTWriXZX81RhmzpssbEwbtP99Au+BRua6XYbx9lOZ6TGB+KY/w8OhwPNxF4muxsKsu2vJIJ4YvsTYz6xDPHfXlJCWMfUFCS7JcSYv0bRxF5NLGG3ytL12+qbVf0MUJiy991iWyQgrd7zBHABK+uXympcfCfFL1Vpzl5wXZpvQSZeFgmeh4zQib14gpShEOA7EED8G8kRQyTlVQLCGEmkCnOMYlHASMatW5ZwtVYmf0kKhlEKlyRNYSgawx938YAwXhIsPoJ/sL1er63lkttzRskjlEpW3sJzPV6iKlKLJB4A7iSTKs9epBtIEsjoC7+u3+LWwr5Ul43Ozyhi28o0q01biOIt69pAXl3H7X0PQeL2mtObEFKYEYXgDWJfioDbvpWlHtdoB7g+F5uCa/cdUKJyfd4iBjcZCMX1M+/OXUKUFGkEo/oKBDnBBYNzGm7Q37CxtleWht9q7s/WWn7ecuYv1uIdJGXN/Zwj8myBSgQtQ4PQHQJhiEERwfskUjgu7+a/r/ypKGkZZpQEGCa8YsjVgjsmlXELFxeglOUTa1lVeUDxcVmbnsraN1euf6Vjfe1d2XOvx9o8Imtz1h28MxW96WjQe0Ogj1AeEt5ABHMF/up2s/z6h//t1t8oPeAJCgf9AEIBui14TMlzehmAqCWff2r0tj1i9BgEuiF/N190acNdxvtHIqThGlHCSEiwVM5gkmHA4OdG3R/lpuuOiDXIODgQbjWjnBdkJIfR5b5Ol791JUYzSCMUccr8NX+8LYk+N+7+yB4X7jykKGP5fUB2Cu95wUNiUAbIlrGpKg6Pcu2Kf9pYrPzpobSOGVs7XZQ6J+1pSJq2OwTKlzS8Z7GCsbJDDGMKkmlnFr7IivIWCcxzEMP8yKF2Cacfarv+bOXo8M6sha3gNY6JtxmZzUg1NXxtDV97kJEqMEYkVP1yWRITEmNYVphmLxrGouQn3w5fR+OJT8aXB0+Esnu+Jgo1c29dmvOByv1xHzFflCERc4kFFf4JuQNZ56RPBpk72ZTdYwg00XRpNOZxGT7v2S7LJTcvWZLyl3gSy7iBCUqRsN7dSrWrQsK2kE7EwipCaSzaJG56gjzKeu17r+TBrq4XhjHg3N1mwprEmKZftHWGD8MYzEylS5jTiciLARFBG5Xrb0nr8i39ZfjgodqP056DuYEubfutXmAw2pZC2xK0NwV9gi+5NomWl+gk11Cut/aLsWM7/nETb5Oio0VuK8htgXyFOFhWrbhbtgFGqZgO8iK4LL13N2wHFGAMjz7Vj5u4PfpB7ijEnWk5k3N4ZT7UoDAvcAdukUVViuynW9e59VEjLwJ1Et80I5ibTYnqzfrCOkGovp4tfT3Mxcx13H5IdkyYZi8kc641MHVbXc5AMNU5WoZpSTC/wCBAzf70J8VpOSPHqc6/Mk5bwvntjhsWIpHNPjVS2xs50ogwNVcynYpJdmdeKezKPegOrq7GKUlhD0htAvVxkJArDOWDJM05kQRFkfiYha5/7DvFkEteZ/Zjerp09SDwEB8YPM5R8yC3TYEt7pES8SBhCHMRLTFx1WQ35LDYvi51bAdwG1YZRFQVu80YRrHInwQgh1N5rPP19SVJsRAugGm4TQB9nJTJE1FvtD1I3tMqf4acuXuu3tVkUm3rVF2LFCwrNH7ha2M3LrJ9DzrBGupfHi86po/ob0Z7mj0PW+fhB0mXcpL3cJcpJPcHDcpE+CdOd5u93WVPc1xMO0MPxq91xT2GtX36V05OEDePCKHluCNH+IBSsZGgMmwKjp+WGDfCfpw8LoQPEEYBCB8VfOu2wMBEnHOea0Mo8f6JCJzKmihlZFTJKd9YWLpe4HuuqWwxHTU51YuK3nw+ZJDkVHmA/tK6fP0I7zNFZeLRyDMYqid9RPy8qS8JZVsSkxRgf29dpES6qg7Lt/Vqw6uBs3yep/roMl6X8WiI5aSgIZQaWJkZoDGsa3ba+0agFPIlCHrqfvwgdA6dsm35oBQxBOSTlfXx2v8HsZ4Go2d2YFM/oyTRnZo7Opl2f70q+bP2QNZHs+q2fbSo9o950APSeq/9AdFczfx9NLQI5Nt27nv9oOr7ePU75fm5xA6zQ37xk1A7F7fY4SYdbDmJ+/t4DG2LRgugfMJae+ug9nVq8rRiS12kr7M1ep2tWmf7PHS29Drbo9fZrnV2zkNnW6+zcx46t8cYhnTZ7ebmx6pet+UcRD/sq89L9PF77lr0w477vEQfuRvnQ5Fr3tmdG1L2Niv8TtlbryirLrVmzMJb5y28Jmw5E+Ht8xZe42fOQngRa3HluzsfQ0rfbj6838c7qvZye0YrfvOQP8jatOecT4bmo1Kj3V52jikb6a/AD+ezRVNFqq39PpeTJtv+q3/r/+37eBPbpV36fq66Xv+rvP4B&lt;/diagram&gt;&lt;/mxfile&gt;"><g><g></g><g><g style="visibility: visible;" transform="translate(0.5,0.5)"><rect x="50" y="20" width="80" height="80" fill="#fff2cc" stroke="#d6b656" pointer-events="all"></rect></g><g style=""><g fill="#774400" font-family="Arial,Helvetica" text-anchor="middle" font-size="11px"><text x="90" y="112">Human (You)</text></g></g><g style="visibility: visible;" transform="translate(0.5,0.5)"><rect x="250" y="0" width="200" height="50" rx="10" ry="10" fill="#dae8fc" stroke="#6c8ebf" pointer-events="all"></rect></g><g style=""><g fill="#774400" font-family="Arial,Helvetica" text-anchor="middle" font-size="14px"><text x="350" y="22.5">GitHub Repo</text><text x="350" y="39.5">(SutroYaro)</text></g></g><g style="visibility: visible;" transform="translate(0.5,0.5)"><rect x="180" y="80" width="140" height="60" rx="8" ry="8" fill="#e1d5e7" stroke="#9673a6" pointer-events="all"></rect></g><g style=""><g fill="#774400" font-family="Arial,Helvetica" text-anchor="middle" font-size="11px"><text x="250" y="101.5">CLAUDE.md</text><text x="250" y="114.5">problem context</text><text x="250" y="127.5">constraints, config</text></g></g><g style="visibility: visible;" transform="translate(0.5,0.5)"><rect x="330" y="80" width="140" height="60" rx="8" ry="8" fill="#e1d5e7" stroke="#9673a6" pointer-events="all"></rect></g><g style=""><g fill="#774400" font-family="Arial,Helvetica" text-anchor="middle" font-size="11px"><text x="400" y="101.5">DISCOVERIES.md</text><text x="400" y="114.5">proven facts</text><text x="400" y="127.5">known-bad configs</text></g></g><g style="visibility: visible;" transform="translate(0.5,0.5)"><rect x="180" y="155" width="140" height="60" rx="8" ry="8" fill="#e1d5e7" stroke="#9673a6" pointer-events="all"></rect></g><g style=""><g fill="#774400" font-family="Arial,Helvetica" text-anchor="middle" font-size="11px"><text x="250" y="176.5">LAB.md</text><text x="250" y="189.5">experiment protocol</text><text x="250" y="202.5">templates</text></g></g><g style="visibility: visible;" transform="translate(0.5,0.5)"><rect x="330" y="155" width="140" height="60" rx="8" ry="8" fill="#e1d5e7" stroke="#9673a6" pointer-events="all"></rect></g><g style=""><g fill="#774400" font-family="Arial,Helvetica" text-anchor="middle" font-size="11px"><text x="400" y="183">proposed-approaches.md</text><text x="400" y="196">27 candidate methods</text></g></g><g style="visibility: visible;" transform="translate(0.5,0.5)"><rect x="540" y="80" width="160" height="135" rx="8" ry="8" fill="#f5f5f5" stroke="#666666" pointer-events="all"></rect></g><g style=""><g fill="#774400" font-family="Arial,Helvetica" text-anchor="middle" font-size="12px"><text x="620" y="152.5">Automation Scripts</text></g></g><g style="visibility: visible;" transform="translate(0.5,0.5)"><rect x="555" y="110" width="130" height="30" rx="6" ry="6" fill="#d5e8d4" stroke="#82b366" pointer-events="all"></rect></g><g style=""><g fill="#774400" font-family="Arial,Helvetica" text-anchor="middle" font-size="10px"><text x="620" y="123">sync_telegram.ts</text><text x="620" y="135">(pull messages)</text></g></g><g style="visibility: visible;" transform="translate(0.5,0.5)"><rect x="555" y="145" width="130" height="30" rx="6" ry="6" fill="#d5e8d4" stroke="#82b366" pointer-events="all"></rect></g><g style=""><g fill="#774400" font-family="Arial,Helvetica" text-anchor="middle" font-size="10px"><text x="620" y="158">sync_google_docs.py</text><text x="620" y="170">(pull docs)</text></g></g><g style="visibility: visible;" transform="translate(0.5,0.5)"><rect x="555" y="180" width="130" height="30" rx="6" ry="6" fill="#d5e8d4" stroke="#82b366" pointer-events="all"></rect></g><g style=""><g fill="#774400" font-family="Arial,Helvetica" text-anchor="middle" font-size="10px"><text x="620" y="193">export_sessions.py</text><text x="620" y="205">(audit trail)</text></g></g><g style="visibility: visible;" transform="translate(0.5,0.5)"><rect x="220" y="280" width="220" height="60" rx="10" ry="10" fill="#ffe6cc" stroke="#d79b00" pointer-events="all"></rect></g><g style=""><g fill="#774400" font-family="Arial,Helvetica" text-anchor="middle" font-size="12px"><text x="330" y="301">Lead Agent</text><text x="330" y="315">(Claude Code / Gemini CLI</text><text x="330" y="329">/ other coding agent)</text></g></g><g style="visibility: visible;" transform="translate(0.5,0.5)"><rect x="50" y="380" width="130" height="60" rx="8" ry="8" fill="#fff2cc" stroke="#d6b656" pointer-events="all"></rect></g><g style=""><g fill="#774400" font-family="Arial,Helvetica" text-anchor="middle" font-size="10px"><text x="115" y="402">1. Reads docs</text><text x="115" y="414">CLAUDE.md</text><text x="115" y="426">DISCOVERIES.md</text></g></g><g style="visibility: visible;" transform="translate(0.5,0.5)"><rect x="200" y="380" width="130" height="60" rx="8" ry="8" fill="#fff2cc" stroke="#d6b656" pointer-events="all"></rect></g><g style=""><g fill="#774400" font-family="Arial,Helvetica" text-anchor="middle" font-size="10px"><text x="265" y="402">2. Surveys</text><text x="265" y="414">problem space</text><text x="265" y="426">(27 approaches)</text></g></g><g style="visibility: visible;" transform="translate(0.5,0.5)"><rect x="350" y="380" width="130" height="60" rx="8" ry="8" fill="#fff2cc" stroke="#d6b656" pointer-events="all"></rect></g><g style=""><g fill="#774400" font-family="Arial,Helvetica" text-anchor="middle" font-size="10px"><text x="415" y="402">3. Dispatches</text><text x="415" y="414">blind sub-agents</text><text x="415" y="426">(parallel)</text></g></g><g style="visibility: visible;" transform="translate(0.5,0.5)"><rect x="500" y="380" width="130" height="60" rx="8" ry="8" fill="#fff2cc" stroke="#d6b656" pointer-events="all"></rect></g><g style=""><g fill="#774400" font-family="Arial,Helvetica" text-anchor="middle" font-size="10px"><text x="565" y="402">4. Collects results</text><text x="565" y="414">updates</text><text x="565" y="426">DISCOVERIES.md</text></g></g><g style="visibility: visible;" transform="translate(0.5,0.5)"><rect x="120" y="490" width="100" height="40" rx="6" ry="6" fill="#f8cecc" stroke="#b85450" pointer-events="all"></rect></g><g style=""><g fill="#774400" font-family="Arial,Helvetica" text-anchor="middle" font-size="10px"><text x="170" y="508">Sub-agent 1</text><text x="170" y="520">GF(2)</text></g></g><g style="visibility: visible;" transform="translate(0.5,0.5)"><rect x="240" y="490" width="100" height="40" rx="6" ry="6" fill="#f8cecc" stroke="#b85450" pointer-events="all"></rect></g><g style=""><g fill="#774400" font-family="Arial,Helvetica" text-anchor="middle" font-size="10px"><text x="290" y="508">Sub-agent 2</text><text x="290" y="520">Hebbian</text></g></g><g style="visibility: visible;" transform="translate(0.5,0.5)"><rect x="360" y="490" width="100" height="40" rx="6" ry="6" fill="#f8cecc" stroke="#b85450" pointer-events="all"></rect></g><g style=""><g fill="#774400" font-family="Arial,Helvetica" text-anchor="middle" font-size="10px"><text x="410" y="508">Sub-agent 3</text><text x="410" y="520">RL Bandit</text></g></g><g style="visibility: visible;" transform="translate(0.5,0.5)"><rect x="480" y="490" width="60" height="40" fill="none" stroke="white" pointer-events="stroke" visibility="hidden" stroke-width="9"></rect><rect x="480" y="490" width="60" height="40" fill="none" stroke="none" pointer-events="all"></rect></g><g style=""><g fill="#774400" font-family="Arial,Helvetica" text-anchor="middle" font-size="12px"><text x="510" y="515">... x17</text></g></g><g style="visibility: visible;" transform="translate(0.5,0.5)"><rect x="140" y="545" width="320" height="40" fill="none" stroke="white" pointer-events="stroke" visibility="hidden" stroke-width="9"></rect><rect x="140" y="545" width="320" height="40" fill="none" stroke="none" pointer-events="all"></rect></g><g style=""><g fill="#999999" font-family="Arial,Helvetica" text-anchor="middle" font-size="10px"><text x="300" y="557">Isolated: no access to other agents'</text><text x="300" y="569">results or knowledge base.</text><text x="300" y="581">Read-only benchmark code.</text></g></g><g style="visibility: visible;" transform="translate(0.5,0.5)"><rect x="180" y="610" width="300" height="30" rx="8" ry="8" fill="#dae8fc" stroke="#6c8ebf" pointer-events="all"></rect></g><g style=""><g fill="#774400" font-family="Arial,Helvetica" text-anchor="middle" font-size="12px"><text x="330" y="630">Outputs (per agent)</text></g></g><g style="visibility: visible;" transform="translate(0.5,0.5)"><rect x="130" y="650" width="100" height="30" rx="6" ry="6" fill="#d5e8d4" stroke="#82b366" pointer-events="all"></rect></g><g style=""><g fill="#774400" font-family="Arial,Helvetica" text-anchor="middle" font-size="10px"><text x="180" y="669">experiment.py</text></g></g><g style="visibility: visible;" transform="translate(0.5,0.5)"><rect x="245" y="650" width="100" height="30" rx="6" ry="6" fill="#d5e8d4" stroke="#82b366" pointer-events="all"></rect></g><g style=""><g fill="#774400" font-family="Arial,Helvetica" text-anchor="middle" font-size="10px"><text x="295" y="669">results.json</text></g></g><g style="visibility: visible;" transform="translate(0.5,0.5)"><rect x="360" y="650" width="100" height="30" rx="6" ry="6" fill="#d5e8d4" stroke="#82b366" pointer-events="all"></rect></g><g style=""><g fill="#774400" font-family="Arial,Helvetica" text-anchor="middle" font-size="10px"><text x="410" y="669">findings.md</text></g></g><g style="visibility: visible;" transform="translate(0.5,0.5)"><rect x="540" y="280" width="160" height="60" rx="8" ry="8" fill="#ffe0b2" stroke="#e65100" pointer-events="all"></rect></g><g style=""><g fill="#774400" font-family="Arial,Helvetica" text-anchor="middle" font-size="10px"><text x="620" y="302">Feedback loop:</text><text x="620" y="314">results feed back into</text><text x="620" y="326">DISCOVERIES.md</text></g></g><g style="visibility: visible;" transform="translate(0.5,0.5)"><path d="M 130 72.5 L 173.92 86.23" fill="none" stroke="white" stroke-miterlimit="10" pointer-events="stroke" visibility="hidden" stroke-width="9"></path><path d="M 130 72.5 L 173.92 86.23" fill="none" stroke="#6482b9" stroke-miterlimit="10" pointer-events="stroke"></path><path d="M 178.93 87.79 L 171.21 89.04 L 173.92 86.23 L 173.3 82.36 Z" fill="#6482b9" stroke="#6482b9" stroke-miterlimit="10" pointer-events="all"></path></g><g style=""><g fill="#446299" font-family="Arial,Helvetica" text-anchor="middle" font-size="11px"><text x="154.82" y="84.76">writes specs</text></g></g><g style="visibility: visible;" transform="translate(0.5,0.5)"><path d="M 130 66.45 L 323.71 97.7" fill="none" stroke="white" stroke-miterlimit="10" pointer-events="stroke" visibility="hidden" stroke-width="9"></path><path d="M 130 66.45 L 323.71 97.7" fill="none" stroke="#6482b9" stroke-miterlimit="10" pointer-events="stroke"></path><path d="M 328.9 98.53 L 321.43 100.87 L 323.71 97.7 L 322.54 93.96 Z" fill="#6482b9" stroke="#6482b9" stroke-miterlimit="10" pointer-events="all"></path></g><g style=""><g fill="#446299" font-family="Arial,Helvetica" text-anchor="middle" font-size="11px"><text x="229.71" y="80.53">writes initial</text><text x="229.71" y="93.53">facts</text></g></g><g style="visibility: visible;" transform="translate(0.5,0.5)"><path d="M 128.4 100 L 296.79 275.41" fill="none" stroke="white" stroke-miterlimit="10" pointer-events="stroke" visibility="hidden" stroke-width="9"></path><path d="M 128.4 100 L 296.79 275.41" fill="none" stroke="#6482b9" stroke-miterlimit="10" pointer-events="stroke"></path><path d="M 300.43 279.19 L 293.05 276.57 L 296.79 275.41 L 298.1 271.72 Z" fill="#6482b9" stroke="#6482b9" stroke-miterlimit="10" pointer-events="all"></path></g><g style=""><g fill="#446299" font-family="Arial,Helvetica" text-anchor="middle" font-size="11px"><text x="214.97" y="194.67">prompts</text></g></g><g style="visibility: visible;" transform="translate(0.5,0.5)"><path d="M 318 280 L 264.37 145.91" fill="none" stroke="white" stroke-miterlimit="10" pointer-events="stroke" visibility="hidden" stroke-width="9"></path><path d="M 318 280 L 264.37 145.91" fill="none" stroke="#6482b9" stroke-miterlimit="10" pointer-events="stroke"></path><path d="M 262.42 141.04 L 268.26 146.24 L 264.37 145.91 L 261.77 148.84 Z" fill="#6482b9" stroke="#6482b9" stroke-miterlimit="10" pointer-events="all"></path></g><g style=""><g fill="#446299" font-family="Arial,Helvetica" text-anchor="middle" font-size="11px"><text x="290.15" y="214.86">reads first</text></g></g><g style="visibility: visible;" transform="translate(0.5,0.5)"><path d="M 340.5 280 L 387.4 146.01" fill="none" stroke="white" stroke-miterlimit="10" pointer-events="stroke" visibility="hidden" stroke-width="9"></path><path d="M 340.5 280 L 387.4 146.01" fill="none" stroke="#6482b9" stroke-miterlimit="10" pointer-events="stroke"></path><path d="M 389.13 141.06 L 390.12 148.82 L 387.4 146.01 L 383.51 146.51 Z" fill="#6482b9" stroke="#6482b9" stroke-miterlimit="10" pointer-events="all"></path></g><g style=""><g fill="#446299" font-family="Arial,Helvetica" text-anchor="middle" font-size="11px"><text x="364.95" y="214.65">reads first</text></g></g><g style="visibility: visible;" transform="translate(0.5,0.5)"><path d="M 265.5 340 L 185.27 377.31" fill="none" stroke="white" stroke-miterlimit="10" pointer-events="stroke" visibility="hidden" stroke-width="9"></path><path d="M 265.5 340 L 185.27 377.31" fill="none" stroke="#6482b9" stroke-miterlimit="10" pointer-events="stroke"></path><path d="M 180.51 379.53 L 185.38 373.4 L 185.27 377.31 L 188.34 379.75 Z" fill="#6482b9" stroke="#6482b9" stroke-miterlimit="10" pointer-events="all"></path></g><g style="visibility: visible;" transform="translate(0.5,0.5)"><path d="M 180 410 L 193.63 410" fill="none" stroke="white" stroke-miterlimit="10" pointer-events="stroke" visibility="hidden" stroke-width="9"></path><path d="M 180 410 L 193.63 410" fill="none" stroke="#6482b9" stroke-miterlimit="10" pointer-events="stroke"></path><path d="M 198.88 410 L 191.88 413.5 L 193.63 410 L 191.88 406.5 Z" fill="#6482b9" stroke="#6482b9" stroke-miterlimit="10" pointer-events="all"></path></g><g style="visibility: visible;" transform="translate(0.5,0.5)"><path d="M 330 410 L 343.63 410" fill="none" stroke="white" stroke-miterlimit="10" pointer-events="stroke" visibility="hidden" stroke-width="9"></path><path d="M 330 410 L 343.63 410" fill="none" stroke="#6482b9" stroke-miterlimit="10" pointer-events="stroke"></path><path d="M 348.88 410 L 341.88 413.5 L 343.63 410 L 341.88 406.5 Z" fill="#6482b9" stroke="#6482b9" stroke-miterlimit="10" pointer-events="all"></path></g><g style="visibility: visible;" transform="translate(0.5,0.5)"><path d="M 480 410 L 493.63 410" fill="none" stroke="white" stroke-miterlimit="10" pointer-events="stroke" visibility="hidden" stroke-width="9"></path><path d="M 480 410 L 493.63 410" fill="none" stroke="#6482b9" stroke-miterlimit="10" pointer-events="stroke"></path><path d="M 498.88 410 L 491.88 413.5 L 493.63 410 L 491.88 406.5 Z" fill="#6482b9" stroke="#6482b9" stroke-miterlimit="10" pointer-events="all"></path></g><g style="visibility: visible;" transform="translate(0.5,0.5)"><path d="M 350 436.53 L 224.9 487.59" fill="none" stroke="white" stroke-miterlimit="10" pointer-events="stroke" visibility="hidden" stroke-width="9"></path><path d="M 350 436.53 L 224.9 487.59" fill="none" stroke="#6482b9" stroke-miterlimit="10" pointer-events="stroke"></path><path d="M 220.04 489.58 L 225.19 483.69 L 224.9 487.59 L 227.84 490.17 Z" fill="#6482b9" stroke="#6482b9" stroke-miterlimit="10" pointer-events="all"></path></g><g style="visibility: visible;" transform="translate(0.5,0.5)"><path d="M 377.5 440 L 319.97 486.02" fill="none" stroke="white" stroke-miterlimit="10" pointer-events="stroke" visibility="hidden" stroke-width="9"></path><path d="M 377.5 440 L 319.97 486.02" fill="none" stroke="#6482b9" stroke-miterlimit="10" pointer-events="stroke"></path><path d="M 315.87 489.3 L 319.15 482.2 L 319.97 486.02 L 323.53 487.66 Z" fill="#6482b9" stroke="#6482b9" stroke-miterlimit="10" pointer-events="all"></path></g><g style="visibility: visible;" transform="translate(0.5,0.5)"><path d="M 413.5 440 L 411.32 483.64" fill="none" stroke="white" stroke-miterlimit="10" pointer-events="stroke" visibility="hidden" stroke-width="9"></path><path d="M 413.5 440 L 411.32 483.64" fill="none" stroke="#6482b9" stroke-miterlimit="10" pointer-events="stroke"></path><path d="M 411.06 488.88 L 407.91 481.72 L 411.32 483.64 L 414.9 482.07 Z" fill="#6482b9" stroke="#6482b9" stroke-miterlimit="10" pointer-events="all"></path></g><g style="visibility: visible;" transform="translate(0.5,0.5)"><path d="M 197.83 530 L 303.96 606.28" fill="none" stroke="white" stroke-miterlimit="10" pointer-events="stroke" visibility="hidden" stroke-width="9"></path><path d="M 197.83 530 L 303.96 606.28" fill="none" stroke="#6482b9" stroke-miterlimit="10" pointer-events="stroke"></path><path d="M 308.22 609.35 L 300.5 608.1 L 303.96 606.28 L 304.58 602.42 Z" fill="#6482b9" stroke="#6482b9" stroke-miterlimit="10" pointer-events="all"></path></g><g style="visibility: visible;" transform="translate(0.5,0.5)"><path d="M 296.96 530 L 322.69 603.99" fill="none" stroke="white" stroke-miterlimit="10" pointer-events="stroke" visibility="hidden" stroke-width="9"></path><path d="M 296.96 530 L 322.69 603.99" fill="none" stroke="#6482b9" stroke-miterlimit="10" pointer-events="stroke"></path><path d="M 324.42 608.94 L 318.81 603.48 L 322.69 603.99 L 325.42 601.18 Z" fill="#6482b9" stroke="#6482b9" stroke-miterlimit="10" pointer-events="all"></path></g><g style="visibility: visible;" transform="translate(0.5,0.5)"><path d="M 396.09 530 L 344.07 604.77" fill="none" stroke="white" stroke-miterlimit="10" pointer-events="stroke" visibility="hidden" stroke-width="9"></path><path d="M 396.09 530 L 344.07 604.77" fill="none" stroke="#6482b9" stroke-miterlimit="10" pointer-events="stroke"></path><path d="M 341.07 609.08 L 342.2 601.34 L 344.07 604.77 L 347.94 605.33 Z" fill="#6482b9" stroke="#6482b9" stroke-miterlimit="10" pointer-events="all"></path></g><g style="visibility: visible;" transform="translate(0.5,0.5)"><path d="M 581.5 380 L 600.43 345.58" fill="none" stroke="white" stroke-miterlimit="10" pointer-events="stroke" visibility="hidden" stroke-width="9"></path><path d="M 581.5 380 L 600.43 345.58" fill="none" stroke="#6482b9" stroke-miterlimit="10" pointer-events="stroke"></path><path d="M 602.96 340.98 L 602.65 348.8 L 600.43 345.58 L 596.52 345.43 Z" fill="#6482b9" stroke="#6482b9" stroke-miterlimit="10" pointer-events="all"></path></g><g style="visibility: visible;" transform="translate(0.5,0.5)"><path d="M 587 280 L 437.71 144.28" fill="none" stroke="white" stroke-miterlimit="10" pointer-events="stroke" visibility="hidden" stroke-width="9"></path><path d="M 587 280 L 437.71 144.28" fill="none" stroke="#6482b9" stroke-miterlimit="10" pointer-events="stroke"></path><path d="M 433.83 140.75 L 441.36 142.87 L 437.71 144.28 L 436.65 148.05 Z" fill="#6482b9" stroke="#6482b9" stroke-miterlimit="10" pointer-events="all"></path></g><g style=""><g fill="#446299" font-family="Arial,Helvetica" text-anchor="middle" font-size="11px"><text x="510.05" y="214.54">updates</text></g></g><g style="visibility: visible;" transform="translate(0.5,0.5)"><path d="M 540 192.33 L 389.09 276.89" fill="none" stroke="white" stroke-miterlimit="10" pointer-events="stroke" visibility="hidden" stroke-width="9"></path><path d="M 540 192.33 L 389.09 276.89" fill="none" stroke="#6482b9" stroke-miterlimit="10" pointer-events="stroke"></path><path d="M 384.51 279.45 L 388.91 272.98 L 389.09 276.89 L 392.33 279.08 Z" fill="#6482b9" stroke="#6482b9" stroke-miterlimit="10" pointer-events="all"></path></g><g style=""><g fill="#446299" font-family="Arial,Helvetica" text-anchor="middle" font-size="11px"><text x="461.49" y="240.82">feeds context</text></g></g></g><g></g><g></g></g></svg>